<svg xmlns="http://www.w3.org/2000/svg" width="176" height="60" viewBox="0 0 176 60">
    <g fill="none" fill-rule="evenodd">
        <g>
            <g>
                <g transform="translate(-953 -11129) translate(-93 10759) translate(1046.102 370)">
                    <rect width="175.241" height="59.375" fill="#000" rx="12"/>
                    <path fill="#FFF" d="M67.869 43.411h-2.983l-1.635-5.13h-5.68l-1.556 5.13h-2.904l5.627-17.466h3.476l5.655 17.466zm9.257-12.853c1.487 0 2.729.587 3.722 1.762.995 1.176 1.492 2.722 1.492 4.64 0 2.141-.58 3.834-1.738 5.077-1.038 1.107-2.326 1.66-3.864 1.66-1.66 0-2.853-.597-3.58-1.788h-.052v6.634h-2.8v-13.58c0-1.347-.036-2.729-.105-4.146h2.463l.157 1.996h.052c.934-1.504 2.351-2.255 4.253-2.255zm14.5 0c1.485 0 2.726.587 3.722 1.762.991 1.176 1.49 2.722 1.49 4.64 0 2.141-.58 3.834-1.74 5.077-1.036 1.107-2.325 1.66-3.863 1.66-1.66 0-2.853-.597-3.578-1.788h-.053v6.634h-2.8v-13.58c0-1.347-.035-2.729-.104-4.146h2.463l.156 1.996h.053c.933-1.504 2.35-2.255 4.253-2.255zm38.536.002c1.85 0 3.337.612 4.46 1.84 1.075 1.19 1.61 2.727 1.61 4.61 0 1.936-.553 3.526-1.66 4.769-1.16 1.28-2.699 1.917-4.618 1.917-1.85 0-3.322-.613-4.42-1.838-1.098-1.226-1.647-2.774-1.647-4.639 0-1.952.565-3.55 1.698-4.793 1.131-1.244 2.658-1.867 4.577-1.867zm-21.756-4.871c1.59 0 2.912.277 3.967.83l-.7 2.28c-.986-.535-2.1-.803-3.346-.803-.985 0-1.755.243-2.307.726-.466.432-.7.958-.7 1.582 0 .69.267 1.26.803 1.71.466.414 1.313.863 2.543 1.348 1.504.605 2.608 1.312 3.319 2.123.708.809 1.061 1.82 1.061 3.028 0 1.486-.516 2.695-1.552 3.628-1.14 1.02-2.725 1.53-4.762 1.53-1.88 0-3.389-.363-4.53-1.089l.649-2.332c1.23.743 2.578 1.115 4.048 1.115 1.055 0 1.876-.239 2.466-.714.587-.475.88-1.113.88-1.908 0-.709-.242-1.306-.727-1.79-.482-.485-1.287-.935-2.411-1.35-3.061-1.141-4.59-2.812-4.59-5.01 0-1.435.536-2.613 1.61-3.529 1.068-.917 2.495-1.375 4.279-1.375zm10.813 1.99v3.135h3.087v2.103h-3.087v6.115c0 1.555.543 2.332 1.634 2.332.5 0 .915-.043 1.244-.13l.077 2.125c-.552.206-1.278.31-2.178.31-1.106 0-1.97-.338-2.594-1.01-.621-.675-.934-1.807-.934-3.396v-6.349h-1.839v-2.1h1.84v-2.306l2.75-.83zm33.404 2.856c1.817 0 3.192.673 4.126 2.02.74 1.07 1.111 2.392 1.111 3.963 0 .502-.032.924-.102 1.27h-8.402c.033 1.244.44 2.195 1.22 2.852.707.586 1.623.88 2.747.88 1.244 0 2.38-.198 3.4-.596l.439 1.943c-1.193.52-2.601.778-4.226.778-1.955 0-3.489-.575-4.605-1.723-1.114-1.149-1.673-2.69-1.673-4.625 0-1.9.52-3.481 1.558-4.742 1.088-1.347 2.558-2.02 4.407-2.02zm-7.987.023c.258 0 .492.019.7.051v2.669c-.277-.051-.573-.078-.883-.078-.985 0-1.747.372-2.283 1.116-.466.656-.7 1.486-.7 2.487v6.608h-2.8l.027-8.628c0-1.452-.035-2.773-.105-3.965h2.44l.102 2.41h.077c.296-.828.762-1.495 1.4-1.995.624-.45 1.298-.675 2.025-.675zm-14.574 2.048c-1.126 0-1.98.502-2.568 1.506-.503.833-.751 1.844-.751 3.041 0 1.162.248 2.158.751 2.988.606 1.005 1.451 1.507 2.543 1.507 1.07 0 1.909-.512 2.514-1.534.516-.846.776-1.853.776-3.013 0-1.162-.248-2.158-.75-2.989-.588-1.005-1.427-1.506-2.515-1.506zm-53.843.18c-.691 0-1.32.23-1.88.686-.562.46-.93 1.06-1.102 1.802-.087.346-.13.63-.13.853v2.1c0 .916.281 1.69.843 2.32.562.632 1.293.947 2.191.947 1.055 0 1.876-.407 2.463-1.218.589-.813.883-1.884.883-3.214 0-1.226-.276-2.237-.83-3.032-.606-.83-1.419-1.245-2.438-1.245zm14.497 0c-.692 0-1.319.23-1.88.686-.563.46-.93 1.06-1.101 1.802-.086.346-.13.63-.13.853v2.1c0 .916.28 1.69.84 2.32.562.63 1.293.947 2.194.947 1.055 0 1.875-.407 2.463-1.218.588-.813.882-1.884.882-3.214 0-1.226-.277-2.237-.831-3.032-.606-.83-1.416-1.245-2.437-1.245zM60.4 28.276c.432 1.727.725 2.825.881 3.29l1.478 4.561h-4.693l1.451-4.56c.381-1.45.658-2.548.83-3.29zm92.014 4.197c-.915 0-1.66.38-2.229 1.141-.466.605-.743 1.33-.829 2.176h5.834c.018-.828-.164-1.545-.544-2.15-.485-.778-1.23-1.167-2.232-1.167zM66.547 13.38c.91 0 1.64.3 2.192.903.526.586.79 1.342.79 2.266 0 .951-.272 1.73-.816 2.342-.57.63-1.325.943-2.268.943-.91 0-1.633-.3-2.173-.905-.538-.602-.808-1.362-.808-2.278 0-.958.277-1.744.834-2.355.557-.61 1.306-.916 2.25-.916zm29.355 0c.91 0 1.64.3 2.194.903.525.586.79 1.342.79 2.266 0 .951-.273 1.73-.817 2.342-.57.63-1.326.943-2.268.943-.91 0-1.634-.3-2.173-.905-.538-.602-.807-1.362-.807-2.278 0-.958.277-1.744.834-2.355.557-.61 1.305-.916 2.247-.916zm7.126 0c1.618 0 2.43.853 2.43 2.56v2.278c0 .618.03 1.11.09 1.475h-1.237l-.102-.712h-.038c-.423.568-1.026.853-1.809.853-.584 0-1.057-.188-1.413-.56-.323-.34-.485-.76-.485-1.26 0-.757.315-1.333.95-1.732.633-.399 1.523-.594 2.67-.585v-.116c0-.815-.428-1.222-1.286-1.222-.61 0-1.15.154-1.614.458l-.28-.903c.575-.355 1.286-.534 2.124-.534zm10.293-2.713v7.36c0 .602.016 1.157.049 1.666h-1.222l-.064-.993h-.039c-.39.756-1.054 1.134-1.988 1.134-.746 0-1.368-.293-1.86-.878-.493-.586-.738-1.346-.738-2.279 0-1.001.266-1.812.802-2.432.519-.577 1.155-.866 1.911-.866.832 0 1.414.28 1.745.84h.026v-3.552h1.378zm8.841 2.713c.908 0 1.64.3 2.191.903.526.586.79 1.342.79 2.266 0 .951-.272 1.73-.816 2.342-.57.63-1.324.943-2.268.943-.908 0-1.632-.3-2.173-.905-.539-.602-.808-1.362-.808-2.278 0-.958.277-1.744.834-2.355.557-.61 1.306-.916 2.25-.916zm18.13-1.415v1.54h1.516v1.031h-1.515v3.006c0 .764.27 1.146.803 1.146.247 0 .452-.021.613-.064l.036 1.043c-.272.102-.63.154-1.07.154-.543 0-.966-.166-1.272-.497-.308-.33-.46-.887-.46-1.668v-3.12h-.905v-1.03h.905v-1.134l1.349-.407zm13.746 1.403c.89 0 1.567.331 2.024.993.37.525.552 1.174.552 1.946 0 .247-.019.454-.051.623h-4.129c.019.612.216 1.078.598 1.4.35.29.8.434 1.351.434.611 0 1.168-.097 1.67-.293l.215.956c-.587.255-1.278.382-2.078.382-.959 0-1.714-.282-2.26-.847-.55-.564-.821-1.321-.821-2.272 0-.933.253-1.71.764-2.33.534-.66 1.255-.992 2.165-.992zm-96.893-2.32c1.504 0 2.637.327 3.402.98.856.74 1.286 1.796 1.286 3.171 0 1.545-.464 2.708-1.39 3.489-.858.72-2.077 1.081-3.655 1.081-.783 0-1.453-.034-2.014-.102v-8.44c.732-.119 1.52-.18 2.37-.18zm27.685 2.328c.578 0 1.059.187 1.441.56.476.459.713 1.143.713 2.05v3.707h-1.376V16.15c0-1.092-.415-1.638-1.248-1.638-.408 0-.738.15-.994.45-.254.3-.383.655-.383 1.06v3.67h-1.376v-4.418c0-.543-.017-1.133-.05-1.77h1.21l.064.967h.038c.16-.3.4-.549.713-.747.373-.23.791-.348 1.248-.348zm-12.539.13l.7 2.942c.17.695.309 1.358.42 1.985h.026c.102-.517.272-1.176.51-1.972l.88-2.953h1.121l.842 2.89c.204.704.37 1.383.497 2.037h.038c.093-.637.234-1.316.42-2.037l.751-2.89h1.35l-1.935 6.185H76.65l-.803-2.686c-.204-.671-.37-1.338-.498-2h-.025c-.12.68-.285 1.346-.498 2l-.852 2.686h-1.276l-1.821-6.187h1.414zm18.49-2.839v9.026h-1.376v-9.026h1.376zm39.61 2.71c.577 0 1.058.186 1.44.56.477.458.714 1.142.714 2.05v3.706h-1.376V16.15c0-1.092-.415-1.638-1.249-1.638-.408 0-.738.15-.993.45-.255.3-.382.655-.382 1.06v3.67h-1.378v-4.418c0-.543-.016-1.133-.049-1.77h1.209l.064.967h.038c.162-.3.4-.549.713-.747.375-.23.791-.348 1.25-.348zm14.703-2.71v3.73h.026c.434-.68 1.055-1.018 1.86-1.018.57 0 1.042.186 1.416.56.467.466.7 1.16.7 2.075v3.68h-1.377v-3.518c0-1.11-.416-1.664-1.247-1.664-.638 0-1.075.321-1.314.964-.04.135-.064.3-.064.495v3.721h-1.375v-9.025h1.375zm-22.983 3.717c-.552 0-.972.247-1.262.74-.247.409-.37.906-.37 1.494 0 .571.124 1.06.37 1.469.298.493.713.74 1.249.74.525 0 .94-.25 1.236-.753.254-.416.382-.91.382-1.48 0-.572-.123-1.061-.369-1.47-.29-.493-.7-.74-1.236-.74zm-20.27 3.476c0 .323.086.564.264.726.177.161.403.241.672.241.302 0 .585-.096.842-.286.259-.192.418-.434.477-.732.014-.067.022-.149.022-.242v-.954c-1.518-.026-2.277.39-2.277 1.247zm-5.988-3.476c-.554 0-.974.247-1.262.74-.247.409-.369.906-.369 1.494 0 .571.124 1.06.37 1.469.297.493.712.74 1.248.74.526 0 .937-.25 1.234-.753.256-.416.382-.91.382-1.48 0-.572-.123-1.061-.37-1.47-.287-.493-.7-.74-1.233-.74zm-29.356 0c-.553 0-.973.247-1.262.74-.247.409-.37.906-.37 1.494 0 .571.124 1.06.37 1.469.298.493.713.74 1.25.74.525 0 .937-.25 1.234-.753.255-.416.382-.91.382-1.48 0-.572-.123-1.061-.369-1.47-.289-.493-.7-.74-1.235-.74zm43.99.065c-.514 0-.916.203-1.212.611-.293.408-.441.93-.441 1.566 0 .612.14 1.108.423 1.49.298.407.7.61 1.203.61.452 0 .813-.17 1.088-.51.265-.313.395-.69.395-1.132v-1.032c0-.178-.013-.322-.038-.433-.078-.33-.244-.609-.498-.833-.256-.225-.565-.337-.92-.337zM57.258 12.13c-.433 0-.802.029-1.109.089v6.417c.17.026.48.038.93.038 1.054 0 1.867-.293 2.44-.878.572-.586.861-1.439.861-2.56 0-1.001-.265-1.769-.796-2.304-.53-.535-1.305-.802-2.326-.802zm96.68 2.19c-.45 0-.817.187-1.096.56-.229.299-.364.654-.409 1.07h2.866c.01-.408-.08-.76-.266-1.056-.24-.382-.603-.574-1.096-.574zM27.607 20.351c1.327 0 3.855-1.83 6.46-1.557 1.091.032 4.194.43 6.195 3.344-.161.097-3.696 2.171-3.657 6.435.044 5.11 4.476 6.8 4.53 6.819-.026.119-.694 2.438-2.356 4.793-1.389 2.073-2.843 4.1-5.154 4.136-2.244.052-2.999-1.319-5.573-1.319-2.598 0-3.402 1.282-5.555 1.37-2.2.082-3.881-2.212-5.32-4.267-2.876-4.195-5.115-11.822-2.113-17.011 1.455-2.546 4.107-4.185 6.942-4.228 2.203-.045 4.247 1.485 5.601 1.485zm6.489-9.726c.22 1.996-.573 3.963-1.73 5.41-1.209 1.423-3.141 2.512-5.024 2.371-.246-1.92.708-3.963 1.775-5.21 1.207-1.413 3.303-2.497 4.979-2.571z"/>
                </g>
            </g>
        </g>
    </g>
</svg>
