<svg xmlns="http://www.w3.org/2000/svg" width="16.994" height="11.756" viewBox="0 0 16.994 11.756"><g id="Group_10292" data-name="Group 10292" transform="translate(0.3)"><g id="stopwatch" transform="translate(6.264 0)"><path id="Path_666" data-name="Path 666" d="M33.462-511.956a.431.431,0,0,0-.241.331.622.622,0,0,0,.085.471.488.488,0,0,0,.315.165c.062,0,.062,0,.062.159v.158l-.119.016a5.222,5.222,0,0,0-4.079,2.878,5.1,5.1,0,0,0-.51,1.718,7.4,7.4,0,0,0,0,1.194,5.38,5.38,0,0,0,1.112,2.662,5.922,5.922,0,0,0,1.185,1.084,5.226,5.226,0,0,0,5.269.306,5.226,5.226,0,0,0,2.8-3.974,6.965,6.965,0,0,0,.011-1.275,5.282,5.282,0,0,0-1.018-2.543l-.149-.2.17-.17c.163-.163.172-.168.271-.161s.113,0,.207-.09c.115-.108.147-.2.106-.31a3.279,3.279,0,0,0-.556-.577.258.258,0,0,0-.305.039.392.392,0,0,0-.149.243.4.4,0,0,0,.044.124l.044.083-.158.158-.158.156-.085-.083a5.938,5.938,0,0,0-1.148-.772,5.711,5.711,0,0,0-1.688-.5l-.133-.014v-.161c0-.159,0-.159.064-.159a.489.489,0,0,0,.312-.165.647.647,0,0,0,0-.68c-.119-.154-.175-.165-.859-.165C33.621-512,33.547-512,33.462-511.956Zm1.38,2.014a4.534,4.534,0,0,1,3.625,3.076,4.063,4.063,0,0,1,.188.829,4.542,4.542,0,0,1-2.5,4.637,4.529,4.529,0,0,1-5.763-1.573,4.673,4.673,0,0,1-.717-1.939A5.621,5.621,0,0,1,29.7-506.2a4.543,4.543,0,0,1,2.368-3.275,4.628,4.628,0,0,1,1.5-.478l.3-.034A6.186,6.186,0,0,1,34.843-509.942Z" transform="translate(-28.95 512)"></path><path id="Path_667" data-name="Path 667" d="M249-409.819v1.482l.138.016a1.4,1.4,0,0,1,.5.165,1.46,1.46,0,0,1,.384.377c.014.046.041.046,1.2.046,1.277,0,1.291,0,1.449.119a.605.605,0,0,1,.221.365l.016.113h.269v-.163a4.226,4.226,0,0,0-.443-1.709,4.171,4.171,0,0,0-3.443-2.279L249-411.3Z" transform="translate(-243.946 413.613)"></path><path id="Path_668" data-name="Path 668" d="M215.528-268.838a.923.923,0,0,0-.457.466.944.944,0,0,0,.023.655.877.877,0,0,0,.664.473.851.851,0,0,0,.845-.5l.034-.085h1.273c1.362,0,1.369,0,1.431-.113a.254.254,0,0,0-.044-.283l-.067-.076-1.3-.007-1.3,0-.053-.115a.887.887,0,0,0-.39-.388A.991.991,0,0,0,215.528-268.838Z" transform="translate(-210.749 274.47)"></path></g><line id="Line_193" data-name="Line 193" x2="3.873" transform="translate(0 6.265)" fill="none" stroke="#000" stroke-linecap="round" stroke-width="0.6"></line><line id="Line_194" data-name="Line 194" x2="3.873" transform="translate(0.966 8.198)" fill="none" stroke="#000" stroke-linecap="round" stroke-width="0.6"></line><line id="Line_195" data-name="Line 195" x2="3.873" transform="translate(2.75 10.319)" fill="none" stroke="#000" stroke-linecap="round" stroke-width="0.6"></line><line id="Line_196" data-name="Line 196" x2="3.873" transform="translate(0.966 4.144)" fill="none" stroke="#000" stroke-linecap="round" stroke-width="0.6"></line><line id="Line_197" data-name="Line 197" x2="3.873" transform="translate(2.898 2.212)" fill="none" stroke="#000" stroke-linecap="round" stroke-width="0.6"></line></g></svg>