<svg xmlns="http://www.w3.org/2000/svg" xmlns:xlink="http://www.w3.org/1999/xlink" width="32px" height="32px" viewBox="0 0 32 32" version="1.1">
    <title>2FD5522B-4FC6-451B-805C-1BEA955BE6FC</title>
    <g id="Page-1" stroke="none" stroke-width="1" fill="none" fill-rule="evenodd">
        <g id="01_-W_Home-page_logged-In" transform="translate(-434.000000, -4626.000000)" stroke="#ffffff" stroke-width="1.5">
            <g id="Pair-with-previous-" transform="translate(157.000000, 4148.000000)">
                <g id="SKU" transform="translate(1.000000, 73.000000)">
                    <g id="Prooduct-lable" transform="translate(0.000000, 399.000000)">
                        <g id="Group-2" transform="translate(270.000000, 0.000000)">
                            <g id="Like" transform="translate(6.000000, 6.000000)">
                                <g id="Group-2" transform="translate(4.000000, 4.989754)">
                                    <path d="M12.1935484,19.7014807 L3.91092553,11.5764027 C1.77381412,9.47994159 1.74086056,6.04795294 3.83732169,3.91084153 C3.85076864,3.89713385 3.86428833,3.88349772 3.87788018,3.86993371 C6.04778188,1.70447853 9.53684742,1.62793321 11.7996299,3.69614135 L12.1935484,4.0561872 L12.1935484,4.0561872" id="Rectangle" fill="#00b0b5"/>
                                    <path d="M20.09447,3.86993371 C22.2317754,6.00285935 22.2353259,9.46456556 20.1024002,11.6018709 C20.0997596,11.604517 20.0971162,11.6071604 20.09447,11.6098011 L11.9861751,19.7014807 L11.9861751,19.7014807 L4.23041475,11.9616133 L12.3387097,3.86993371 C14.4816893,1.73134544 17.9514904,1.73134544 20.09447,3.86993371 Z" id="Rectangle-Copy-12" fill="#00b0b5"/>
                                </g>
                            </g>
                        </g>
                    </g>
                </g>
            </g>
        </g>
    </g>
</svg>