<svg xmlns="http://www.w3.org/2000/svg" width="177" height="60" viewBox="0 0 177 60">
    <defs>
        <linearGradient id="5z4a2fmhna" x1="50%" x2="50%" y1="0%" y2="100%">
            <stop offset="0%" stop-color="#1E79AF"/>
            <stop offset="100%" stop-color="#63FFD3"/>
        </linearGradient>
        <linearGradient id="8vqr1anvpb" x1="84.718%" x2="5.244%" y1="28.936%" y2="77.585%">
            <stop offset="0%" stop-color="#DC4057"/>
            <stop offset="100%" stop-color="#9E36BB"/>
        </linearGradient>
        <linearGradient id="cht25mxcmc" x1="50%" x2="50%" y1="0%" y2="97.826%">
            <stop offset="0%" stop-color="#FF9676"/>
            <stop offset="100%" stop-color="#FFD074"/>
        </linearGradient>
        <linearGradient id="la5qi6b83d" x1="17.444%" x2="100%" y1="20.379%" y2="79.621%">
            <stop offset="0%" stop-color="#51C6AD"/>
            <stop offset="100%" stop-color="#D5FFA1"/>
        </linearGradient>
    </defs>
    <g fill="none" fill-rule="evenodd">
        <g>
            <g>
                <g>
                    <g transform="translate(-1140 -11129) translate(-93 10759) translate(1046.102 370) translate(187.759 .469)">
                        <rect width="175.241" height="59.375" fill="#000" rx="12"/>
                        <g>
                            <path fill="url(#5z4a2fmhna)" d="M1.096-.178C.603-.023.283.48.283 1.242l.003 23.966c0 .753.31 1.248.79 1.414L14.392 13.21 1.096-.18" transform="translate(13.095 24.402)"/>
                            <path fill="url(#8vqr1anvpb)" d="M1.076 26.622c.345.118.778.063 1.25-.198l16.25-9-4.184-4.213L1.076 26.62" transform="translate(13.095 24.402)"/>
                            <path fill="url(#cht25mxcmc)" d="M18.578 17.424l5.541-3.068c1.124-.624 1.124-1.64 0-2.263l-5.561-3.08-4.166 4.196 4.186 4.215" transform="translate(13.095 24.402)"/>
                            <path fill="url(#la5qi6b83d)" d="M18.557 9.014L2.326.026c-.46-.254-.885-.313-1.229-.204l13.295 13.387 4.165-4.195" transform="translate(13.095 24.402)"/>
                        </g>
                        <path fill="#FFF" d="M101.445 32.328l-1.644.935h-1.595c.59.488 1.82 1.523 1.82 3.488 0 1.914-1.072 2.817-2.153 3.67-.331.337-.72.702-.72 1.265 0 .573.389.883.668 1.114l.927.721c1.127.959 2.155 1.837 2.155 3.622 0 2.432-2.337 4.884-6.753 4.884-3.72 0-5.518-1.784-5.518-3.697 0-.93.46-2.25 1.979-3.153 1.591-.98 3.747-1.11 4.902-1.187-.36-.469-.772-.96-.772-1.761 0-.438.13-.7.257-1.008-.281.027-.564.055-.821.055-2.723 0-4.262-2.046-4.262-4.061 0-1.189.539-2.508 1.645-3.464 1.464-1.214 3.209-1.423 4.595-1.423h5.29zm-5.649 12.384c-.232 0-1.62.05-2.693.413-.568.21-2.21.828-2.21 2.664 0 1.832 1.772 3.154 4.515 3.154 2.465 0 3.774-1.19 3.774-2.792 0-1.318-.847-2.014-2.794-3.412-.211-.027-.337-.027-.592-.027zm56.838-12.469l4.388 10.598 4.345-10.598h1.469l-6.239 14.796c-.647 1.524-1.666 2.258-3.065 2.258-.42 0-.973-.075-1.298-.176l.223-1.206c.278.124.752.201 1.052.201.795 0 1.348-.327 1.844-1.482l.947-2.161-5.115-12.23h1.449zm-23.207-.302c3.22 0 5.389 2.46 5.389 6.353 0 3.868-2.17 6.38-5.39 6.38-1.694 0-3.212-.88-4.186-2.26v6.584h-1.299V32.243h1.299v1.908c.846-1.233 2.391-2.21 4.187-2.21zm-75.55-5.09c1.298 0 2.547.192 3.685.505 1.804.51 2.648 1.139 3.175 1.507l-2 1.912-.842.19.6-.964c-.813-.8-2.31-2.278-5.15-2.278-3.796 0-6.66 2.906-6.66 7.15 0 4.557 3.27 8.844 8.515 8.844 1.541 0 2.335-.312 3.055-.603v-3.907l-3.634.197 1.926-1.042h5.1l-.623.604c-.169.144-.191.193-.239.386-.025.22-.048.923-.048 1.17v2.954l-3.442.794c-1.394.221-2.646.416-3.972.416-6.638 0-9.168-4.92-9.168-8.772 0-4.703 3.584-9.063 9.722-9.063zm91.231 5.084c1.416 0 2.561.343 3.425 1.028.862.678 1.295 1.658 1.295 2.939v5.983c0 .43.02.845.074 1.25.055.405.142.81.259 1.2h-1.497c-.086-.42-.152-.79-.2-1.1-.04-.309-.062-.625-.062-.946-.445.658-1.076 1.206-1.881 1.637-.807.435-1.573.648-2.623.648-1.265 0-2.247-.314-2.948-.95-.698-.634-1.05-1.495-1.05-2.583 0-1.087.51-1.97 1.524-2.645 1.015-.678 2.326-1.015 3.95-1.015h3.028v-1.507c0-.868-.294-1.55-.88-2.045-.589-.496-1.415-.746-2.486-.746-.98 0-1.773.229-2.378.675-.6.455-.902 1.019-.902 1.698h-1.329l-.027-.065c-.048-.916.368-1.72 1.253-2.414.88-.693 2.035-1.042 3.455-1.042zm-31.986.06c.923 0 1.872.232 2.643.723 1.283.854 1.614 1.964 1.798 2.559l-6.034 2.455-1.977.155c.64 3.286 2.848 5.198 5.287 5.198 1.219 0 2.124-.401 2.953-.814 0 0 .167-.087.048.032l-1.227 1.167c-.284.157-.566.34-.848.469-.853.39-1.72.488-2.49.488-.82 0-2.106-.054-3.418-1.01-1.821-1.292-2.618-3.513-2.618-5.449 0-4.008 3.24-5.974 5.883-5.974zm-44.106 0c3.772 0 6.133 2.975 6.133 6.099 0 3.05-2.333 6.28-6.52 6.28-4.081 0-6.26-3.2-6.26-6.098 0-3.385 2.745-6.282 6.647-6.282zm13.66 0c3.774 0 6.137 2.975 6.137 6.099 0 3.05-2.336 6.28-6.522 6.28-4.08 0-6.264-3.2-6.264-6.098 0-3.385 2.745-6.282 6.649-6.282zm55.21-4.378v16.755h-1.297V27.617h1.298zm-31.522-1.827c-.795.464-1.034.747-1.135 1.651l-.007 14.662c0 1.005.178 1.16 1.022 1.24.44.052.878.075 1.312.127l-.95.57h-4.524c.594-.776.695-.854.695-1.37v-.577l-.01-15.37h-1.997l1.923-.933h3.671zM68.35 32.796c-.85 0-1.693.333-2.31.877-1.003.905-1.181 2.042-1.181 3.157 0 2.554 1.258 6.767 4.364 6.767 1.002 0 2.025-.49 2.618-1.315.616-.828.77-1.86.77-2.867 0-2.277-1.08-6.619-4.26-6.619zm13.663 0c-.847 0-1.7.333-2.315.877-1.002.905-1.18 2.042-1.18 3.157 0 2.554 1.253 6.767 4.364 6.767 1.004 0 2.029-.49 2.62-1.315.62-.828.771-1.86.771-2.867 0-2.277-1.077-6.619-4.26-6.619zm47.196.325c-1.673 0-3.273 1.324-3.968 2.478v5.364c.695 1.156 2.295 2.528 3.968 2.528 2.693 0 4.213-2.257 4.213-5.197 0-2.935-1.52-5.173-4.213-5.173zm19.194 5.298h-3.043c-1.162 0-2.125.26-2.881.782-.759.52-1.143 1.151-1.143 1.884 0 .692.243 1.245.727 1.664.486.424 1.149.634 1.995.634 1.103 0 1.895-.249 2.706-.74.804-.488 1.352-1.124 1.639-1.895v-2.329zm-53.866-5.236c-.666 0-1.387.336-1.796.857-.434.538-.565 1.237-.565 1.909 0 1.73 1.003 4.602 3.208 4.602.644 0 1.336-.315 1.742-.724.594-.597.645-1.42.645-1.889 0-1.86-1.1-4.755-3.234-4.755zm17.864-.336c-1.026 0-2.951.804-2.951 3.597 0 .436.052.9.078 1.365l4.673-2.043c.49-.179.744-.334.744-.694 0-1.032-1.16-2.225-2.544-2.225zM48.402 9.527c1.613 0 2.668.768 3.326 1.71l-1.18.682c-.446-.62-1.228-1.103-2.146-1.103-1.637 0-2.854 1.239-2.854 2.986 0 1.722 1.217 2.986 2.854 2.986.844 0 1.589-.384 1.96-.743v-1.277h-2.48v-1.276h3.92v3.086c-.806.904-1.973 1.511-3.4 1.511-2.408 0-4.343-1.697-4.343-4.287 0-2.602 1.935-4.275 4.343-4.275zm42.258 0c2.468 0 4.231 1.809 4.231 4.275s-1.763 4.275-4.231 4.275c-2.483 0-4.232-1.81-4.232-4.275 0-2.466 1.749-4.275 4.232-4.275zm-31.392.136v1.277h-4.22v2.13h4.133v1.277H55.05v2.305h4.22v1.276h-5.671V9.663h5.67zm7.975 0v1.277h-2.506v6.988h-1.452V10.94H60.78V9.663h6.464zm6.497 0v8.265h-1.45V9.663h1.45zm8.002 0v1.277h-2.506v6.988h-1.452V10.94h-2.506V9.663h6.464zm16.334 0l4.23 5.725V9.663h1.453v8.265h-1.403l-4.318-5.91v5.91h-1.452V9.663h1.49zm-7.416 1.153c-1.676 0-2.743 1.276-2.743 2.986 0 1.697 1.067 2.986 2.743 2.986 1.662 0 2.742-1.289 2.742-2.986 0-1.71-1.08-2.986-2.742-2.986z"/>
                    </g>
                </g>
            </g>
        </g>
    </g>
</svg>
