<?xml version="1.0" encoding="UTF-8"?>
<svg width="243px" height="30px" viewBox="0 0 243 30" version="1.1" xmlns="http://www.w3.org/2000/svg" xmlns:xlink="http://www.w3.org/1999/xlink">
    <title>Group 37</title>
    <g id="HOME" stroke="none" stroke-width="1" fill="none" fill-rule="evenodd">
        <g id="Pantaloons-Home-page-with-1366-px" transform="translate(-78.000000, -50.000000)">
            <g id="Group-37" transform="translate(79.000000, 51.000000)">
                <path d="M27.0899312,13.6746094 C27.0899312,19.6676827 30.7517889,25.4006938 37.3650706,25.4006938 C43.9133036,25.4006938 47.5126634,19.7970668 47.5126634,13.6746094 C47.5126634,5.79252781 41.798584,2.47123702 37.3025728,2.47123702 C32.098679,2.47123702 27.0899312,6.44591771 27.0899312,13.6746094 L27.0899312,13.6746094 Z M47.3812906,0.357100218 L49.9488,0.357100218 L49.9488,27.1590242 L47.3812906,27.1590242 L47.3812906,22.405451 C44.7474571,26.5095158 40.5741384,27.8784 37.1712,27.8784 C30.30155,27.8784 24.3936,22.6021149 24.3936,13.873861 C24.3936,5.6670252 29.5298942,0 37.1712,0 C41.2794701,0 44.8788299,1.62894628 47.3812906,5.2102992 L47.3812906,0.357100218 Z" id="Fill-1" fill="#FFFFFF"></path>
                <path d="M27.0899312,13.6746094 C27.0899312,19.6676827 30.7517889,25.4006938 37.3650706,25.4006938 C43.9133036,25.4006938 47.5126634,19.7970668 47.5126634,13.6746094 C47.5126634,5.79252781 41.798584,2.47123702 37.3025728,2.47123702 C32.098679,2.47123702 27.0899312,6.44591771 27.0899312,13.6746094 Z M47.3812906,0.357100218 L49.9488,0.357100218 L49.9488,27.1590242 L47.3812906,27.1590242 L47.3812906,22.405451 C44.7474571,26.5095158 40.5741384,27.8784 37.1712,27.8784 C30.30155,27.8784 24.3936,22.6021149 24.3936,13.873861 C24.3936,5.6670252 29.5298942,0 37.1712,0 C41.2794701,0 44.8788299,1.62894628 47.3812906,5.2102992 L47.3812906,0.357100218 Z" id="Stroke-3" stroke="#FFFFFF" stroke-width="0.7039296"></path>
                <path d="M103.75298,13.6746094 C103.75298,19.6676827 107.414838,25.4006938 114.02812,25.4006938 C120.576353,25.4006938 124.175713,19.7970668 124.175713,13.6746094 C124.175713,5.79252781 118.461633,2.47123702 113.965622,2.47123702 C108.764279,2.47123702 103.75298,6.44591771 103.75298,13.6746094 L103.75298,13.6746094 Z M124.046891,0.357100218 L126.6144,0.357100218 L126.6144,27.1590242 L124.046891,27.1590242 L124.046891,22.405451 C121.413057,26.5095158 117.239738,27.8784 113.8368,27.8784 C106.96715,27.8784 101.0592,22.6021149 101.0592,13.873861 C101.0592,5.6670252 106.195494,0 113.8368,0 C117.94507,0 121.54443,1.62894628 124.046891,5.2102992 L124.046891,0.357100218 Z" id="Fill-5" fill="#FFFFFF"></path>
                <path d="M103.75298,13.6746094 C103.75298,19.6676827 107.414838,25.4006938 114.02812,25.4006938 C120.576353,25.4006938 124.175713,19.7970668 124.175713,13.6746094 C124.175713,5.79252781 118.461633,2.47123702 113.965622,2.47123702 C108.764279,2.47123702 103.75298,6.44591771 103.75298,13.6746094 Z M124.046891,0.357100218 L126.6144,0.357100218 L126.6144,27.1590242 L124.046891,27.1590242 L124.046891,22.405451 C121.413057,26.5095158 117.239738,27.8784 113.8368,27.8784 C106.96715,27.8784 101.0592,22.6021149 101.0592,13.873861 C101.0592,5.6670252 106.195494,0 113.8368,0 C117.94507,0 121.54443,1.62894628 124.046891,5.2102992 L124.046891,0.357100218 Z" id="Stroke-7" stroke="#FFFFFF" stroke-width="0.7039296"></path>
                <polygon id="Fill-9" fill="#FFFFFF" points="92.5914516 2.5989707 92.5914516 26.7168 89.760569 26.7168 89.760569 2.5989707 80.1504 2.5989707 80.1504 0 102.2208 0 102.2208 2.59639236 92.5914516 2.59639236"></polygon>
                <polygon id="Stroke-11" stroke="#FFFFFF" stroke-width="0.7039296" points="92.5914516 2.5989707 92.5914516 26.7168 89.760569 26.7168 89.760569 2.5989707 80.1504 2.5989707 80.1504 0 102.2208 0 102.2208 2.59639236 92.5914516 2.59639236"></polygon>
                <path d="M80.1504,26.7168 L77.4540688,26.7168 L77.4540688,13.6349674 C77.4540688,6.42745273 72.4465964,2.47041112 67.2452536,2.47041112 C62.7492424,2.47041112 57.0351629,5.7801947 57.0351629,13.6349674 L57.1639848,26.7168 L54.5952,26.7168 L54.5952,0 L57.1639848,0 L57.1639848,5.19224717 C59.6689964,1.6233025 63.2645299,0 67.3728,0 C75.0141058,0 80.1504,5.64739076 80.1504,13.8270819 L80.1504,26.7168 Z" id="Fill-13" fill="#FFFFFF"></path>
                <path d="M80.1504,26.7168 L77.4540688,26.7168 L77.4540688,13.6349674 C77.4540688,6.42745273 72.4465964,2.47041112 67.2452536,2.47041112 C62.7492424,2.47041112 57.0351629,5.7801947 57.0351629,13.6349674 L57.1639848,26.7168 L54.5952,26.7168 L54.5952,0 L57.1639848,0 L57.1639848,5.19224717 C59.6689964,1.6233025 63.2645299,0 67.3728,0 C75.0141058,0 80.1504,5.64739076 80.1504,13.8270819 L80.1504,26.7168 Z" id="Stroke-15" stroke="#FFFFFF" stroke-width="0.7039296"></path>
                <path d="M221.8656,26.7168 L219.169269,26.7168 L219.169269,13.6349674 C219.169269,6.42745273 214.161796,2.47041112 208.960454,2.47041112 C204.464442,2.47041112 198.750363,5.7801947 198.750363,13.6349674 L198.879185,26.7168 L196.3104,26.7168 L196.3104,0 L198.879185,0 L198.879185,5.19224717 C201.384196,1.6233025 204.97973,0 209.088,0 C216.729306,0 221.8656,5.64739076 221.8656,13.8270819 L221.8656,26.7168 Z" id="Fill-17" fill="#FFFFFF"></path>
                <path d="M221.8656,26.7168 L219.169269,26.7168 L219.169269,13.6349674 C219.169269,6.42745273 214.161796,2.47041112 208.960454,2.47041112 C204.464442,2.47041112 198.750363,5.7801947 198.750363,13.6349674 L198.879185,26.7168 L196.3104,26.7168 L196.3104,0 L198.879185,0 L198.879185,5.19224717 C201.384196,1.6233025 204.97973,0 209.088,0 C216.729306,0 221.8656,5.64739076 221.8656,13.8270819 L221.8656,26.7168 Z" id="Stroke-19" stroke="#FFFFFF" stroke-width="0.7039296"></path>
                <path d="M237.92212,5.47502848 C237.030395,3.38954977 235.251998,2.47747626 233.407921,2.47747626 C230.483923,2.47747626 229.021292,4.75571945 229.021292,6.71182603 C229.021292,9.31608698 231.056092,10.1621807 233.599907,11.2049201 C236.208139,12.2463657 238.624385,12.9630873 240.276476,15.1119583 C241.356398,16.4807155 241.6128,17.9128649 241.6128,19.4109942 C241.6128,25.4681972 237.160491,27.8784 233.154045,27.8784 C228.829306,27.8784 225.268722,25.2741391 224.1888,20.8444374 L226.669462,20.061736 C227.561187,23.5793642 230.295726,25.4009237 233.157834,25.4009237 C236.464542,25.4009237 238.942678,22.9894273 238.942678,19.5390726 C238.942678,16.5441078 237.098601,15.4353887 233.157834,13.8065936 C230.549602,12.7004619 228.643635,11.8517807 227.499297,10.2889654 C226.925865,9.50626401 226.353696,8.40013231 226.353696,6.83861072 C226.353696,2.80090658 229.343374,0 233.284141,0 C236.338235,0 238.880788,1.43214946 240.087016,4.29903583 L237.92212,5.47502848 Z" id="Fill-21" fill="#FFFFFF"></path>
                <path d="M237.92212,5.47502848 C237.030395,3.38954977 235.251998,2.47747626 233.407921,2.47747626 C230.483923,2.47747626 229.021292,4.75571945 229.021292,6.71182603 C229.021292,9.31608698 231.056092,10.1621807 233.599907,11.2049201 C236.208139,12.2463657 238.624385,12.9630873 240.276476,15.1119583 C241.356398,16.4807155 241.6128,17.9128649 241.6128,19.4109942 C241.6128,25.4681972 237.160491,27.8784 233.154045,27.8784 C228.829306,27.8784 225.268722,25.2741391 224.1888,20.8444374 L226.669462,20.061736 C227.561187,23.5793642 230.295726,25.4009237 233.157834,25.4009237 C236.464542,25.4009237 238.942678,22.9894273 238.942678,19.5390726 C238.942678,16.5441078 237.098601,15.4353887 233.157834,13.8065936 C230.549602,12.7004619 228.643635,11.8517807 227.499297,10.2889654 C226.925865,9.50626401 226.353696,8.40013231 226.353696,6.83861072 C226.353696,2.80090658 229.343374,0 233.284141,0 C236.338235,0 238.880788,1.43214946 240.087016,4.29903583 L237.92212,5.47502848 Z" id="Stroke-23" stroke="#FFFFFF" stroke-width="0.7039296"></path>
                <polygon id="Fill-25" fill="#FFFFFF" points="134.187493 0 134.187493 24.1180603 148.6848 24.1180603 148.6848 26.7168 131.2608 26.7168 131.2608 0"></polygon>
                <polygon id="Stroke-27" stroke="#FFFFFF" stroke-width="0.7039296" points="134.187493 0 134.187493 24.1180603 148.6848 24.1180603 148.6848 26.7168 131.2608 26.7168 131.2608 0"></polygon>
                <path d="M17.9513935,9.97495969 C17.9513935,15.4292099 14.1559487,18.0518919 8.5605101,18.0518919 L2.89991911,18.0518919 L2.89991911,2.59818301 L8.58478255,2.59818301 C13.9234442,2.59818301 17.6230767,4.98747985 17.9513935,9.94530301 L17.9513935,9.97495969 Z M20.9088,9.8640695 C20.5089433,3.2467617 15.5458659,0 8.45575531,0 L0.104754787,0 L0.0715398546,0 L0,26.7168 L2.82837925,26.7168 L2.89991911,20.6487855 L8.43276036,20.6487855 C15.8294703,20.6487855 20.9088,17.1157724 20.9088,9.90790981 L20.9088,9.8640695 Z" id="Fill-29" fill="#FFFFFF"></path>
                <path d="M17.9513935,9.97495969 C17.9513935,15.4292099 14.1559487,18.0518919 8.5605101,18.0518919 L2.89991911,18.0518919 L2.89991911,2.59818301 L8.58478255,2.59818301 C13.9234442,2.59818301 17.6230767,4.98747985 17.9513935,9.94530301 L17.9513935,9.97495969 Z M20.9088,9.8640695 C20.5089433,3.2467617 15.5458659,0 8.45575531,0 L0.104754787,0 L0.0715398546,0 L0,26.7168 L2.82837925,26.7168 L2.89991911,20.6487855 L8.43276036,20.6487855 C15.8294703,20.6487855 20.9088,17.1157724 20.9088,9.90790981 L20.9088,9.8640695 Z" id="Stroke-31" stroke="#FFFFFF" stroke-width="0.7039296"></path>
                <path d="M161.566691,25.402767 C155.136889,25.402767 150.279948,20.3893187 150.279948,13.9379045 C150.279948,7.48908134 155.136889,2.47563301 161.566691,2.47563301 C164.429166,2.47563301 166.980986,3.47054989 168.929766,5.14429026 C168.916713,5.15983584 168.904966,5.17538141 168.893218,5.18963152 C168.450729,5.74409041 168.051314,6.33352684 167.700194,6.95664535 C166.551549,8.99052491 165.90152,11.3689981 165.90152,13.9379045 C165.90152,16.5094019 166.551549,18.8852842 167.70411,20.9217546 C168.133546,20.5344107 168.523825,20.1043164 168.871029,19.6379491 C169.124253,19.2998329 169.356592,18.9371028 169.562826,18.561418 C168.978062,17.1571343 168.658268,15.5935084 168.658268,13.9379045 C168.658268,7.48908134 173.515209,2.47563301 179.947621,2.47563301 C186.377423,2.47563301 191.234364,7.48908134 191.234364,13.9379045 C191.234364,20.3854323 186.377423,25.402767 179.947621,25.402767 C177.082535,25.402767 174.530716,24.4065546 172.581935,22.7341097 C172.990487,22.2288785 173.362492,21.6938516 173.691422,21.1277335 C174.919689,19.0459218 175.612792,16.5949026 175.612792,13.9340181 C175.612792,11.2744291 174.917078,8.82470543 173.691422,6.74159822 C172.95655,7.39969428 172.328711,8.17049576 171.835316,9.0384571 C172.493176,10.5152868 172.856044,12.1708907 172.856044,13.9314272 C172.856044,15.6958501 172.487955,17.3475676 171.835316,18.8269883 C171.142213,20.4009778 168.228832,25.402767 161.566691,25.402767 M179.945011,0 C176.384211,0 173.1915,1.22032773 170.755851,3.27234379 C168.316285,1.2177368 165.12749,0 161.566691,0 C153.626682,0 147.5232,6.05759286 147.5232,13.9379045 C147.5232,21.8169207 153.626682,27.8784 161.566691,27.8784 C165.12749,27.8784 168.316285,26.6580723 170.755851,24.6034653 C173.1915,26.6580723 176.384211,27.8784 179.945011,27.8784 C187.883714,27.8784 193.987198,21.8195117 193.987198,13.9379045 C193.991112,6.05500193 187.88763,0 179.945011,0" id="Fill-33" fill="#FFFFFF"></path>
                <path d="M161.566691,25.402767 C155.136889,25.402767 150.279948,20.3893187 150.279948,13.9379045 C150.279948,7.48908134 155.136889,2.47563301 161.566691,2.47563301 C164.429166,2.47563301 166.980986,3.47054989 168.929766,5.14429026 C168.916713,5.15983584 168.904966,5.17538141 168.893218,5.18963152 C168.450729,5.74409041 168.051314,6.33352684 167.700194,6.95664535 C166.551549,8.99052491 165.90152,11.3689981 165.90152,13.9379045 C165.90152,16.5094019 166.551549,18.8852842 167.70411,20.9217546 C168.133546,20.5344107 168.523825,20.1043164 168.871029,19.6379491 C169.124253,19.2998329 169.356592,18.9371028 169.562826,18.561418 C168.978062,17.1571343 168.658268,15.5935084 168.658268,13.9379045 C168.658268,7.48908134 173.515209,2.47563301 179.947621,2.47563301 C186.377423,2.47563301 191.234364,7.48908134 191.234364,13.9379045 C191.234364,20.3854323 186.377423,25.402767 179.947621,25.402767 C177.082535,25.402767 174.530716,24.4065546 172.581935,22.7341097 C172.990487,22.2288785 173.362492,21.6938516 173.691422,21.1277335 C174.919689,19.0459218 175.612792,16.5949026 175.612792,13.9340181 C175.612792,11.2744291 174.917078,8.82470543 173.691422,6.74159822 C172.95655,7.39969428 172.328711,8.17049576 171.835316,9.0384571 C172.493176,10.5152868 172.856044,12.1708907 172.856044,13.9314272 C172.856044,15.6958501 172.487955,17.3475676 171.835316,18.8269883 C171.142213,20.4009778 168.228832,25.402767 161.566691,25.402767 Z M179.945011,0 C176.384211,0 173.1915,1.22032773 170.755851,3.27234379 C168.316285,1.2177368 165.12749,0 161.566691,0 C153.626682,0 147.5232,6.05759286 147.5232,13.9379045 C147.5232,21.8169207 153.626682,27.8784 161.566691,27.8784 C165.12749,27.8784 168.316285,26.6580723 170.755851,24.6034653 C173.1915,26.6580723 176.384211,27.8784 179.945011,27.8784 C187.883714,27.8784 193.987198,21.8195117 193.987198,13.9379045 C193.991112,6.05500193 187.88763,0 179.945011,0 Z" id="Stroke-35" stroke="#FFFFFF" stroke-width="0.7039296"></path>
            </g>
        </g>
    </g>
</svg>