<svg xmlns="http://www.w3.org/2000/svg" width="499" height="545" viewBox="0 0 499 545">
    <g fill="none" fill-rule="evenodd">
        <g fill="#FFD14B">
            <g>
                <path d="M145 110.046c.059 0 .059-.092 0-.092-.06 0-.06.092 0 .092M143.138 110.04c-1.933 39.033 16.745 74.344 36.33 106.76 20.14 33.345 45.143 57.315 79.551 75.397 34.165 17.951 73.74 30.13 102.542 56.826 29.798 27.623 38.14 71.681 57.363 106.422 19.5 35.233 45.323 66.633 78.669 89.386 1.03.705 1.993-.976.973-1.676-31.297-21.492-55.874-50.727-74.76-83.582-18.04-31.385-26.351-69.208-48.077-98.245-20.776-27.772-54.36-41.935-84.809-56.1-34.386-16-68.526-32.816-92.451-63.43-28.224-36.114-56.291-84.675-55.251-131.759.002-.052-.077-.052-.08 0" transform="translate(147 -1005) matrix(-1 0 0 1 352 1005)"/>
                <path d="M167.411 195.406c-14.11-24.2-38.812-35.662-66.078-33.702-32.572 2.341-73.1 20.538-99.558-8.37-.84-.921-2.189.247-1.652 1.298 13.592 26.608 29.367 46.876 60.386 50.636 36.255 4.398 71.527-12.916 107.56-2.234.937.28 1.33-1.194.4-1.485-30.407-9.503-60.888 1.227-91.654 2.12-18.234.528-37.225-1.982-51.453-14.656-6.707-5.975-11.78-13.643-16.188-21.457-1.62-2.863-3.064-5.82-4.598-8.727-1.312-2.48-3.42-2.299.624 1.081 18.184 15.2 43.772 12.605 65.279 8.45 18.367-3.55 37.323-8.394 55.915-3.544 17.061 4.452 31.078 15.936 40.177 31.09.326.543 1.161.05.84-.5" transform="translate(147 -1005) matrix(-1 0 0 1 352 1005)"/>
                <path d="M168.96 199.682c-14.594-21.054-44.628-8.814-64.849-5.302-37.093 6.441-76.363 2.065-97.962-31.341-.055-.088-.185-.012-.14.077 10.264 21.255 34.687 32.224 57.635 34.465 15.133 1.476 30.338-.31 45.192-3.155 19.741-3.783 44.856-13.452 59.73 5.48.172.22.56.018.393-.224" transform="translate(147 -1005) matrix(-1 0 0 1 352 1005)"/>
                <path d="M161.953 195.587c-14.144-19.407-40.098-13.12-59.391-7.749-34.292 9.547-67.69 1.202-92.327-25.6-.661-.716-1.655.34-1.044 1.07 15.881 18.988 39.18 29.98 63.583 30.718 28.946.872 65.213-25.674 88.76 1.892.196.232.603-.079.42-.331" transform="translate(147 -1005) matrix(-1 0 0 1 352 1005)"/>
                <path d="M166.964 190.766c-16.122-18.861-39.21-22.794-62.51-17.668-17.255 3.795-33.166 7.286-50.921 4.35-15.869-2.622-30.569-9.03-43.63-18.335-.651-.464-1.28.618-.629 1.078 20.456 14.373 44.942 21.529 69.97 19.41 14.595-1.237 28.35-7.31 42.952-7.98 17.396-.796 32.752 7.05 44.577 19.336.123.128.304-.06.191-.19M193.816 239.91c-3.946-15.922-5.554-33.516 3.256-48.196 7.197-11.995 20.657-20.376 30.123-30.558 7.769-8.362 14.794-17.415 21.055-26.95 6.948-10.585 10.99-23.2 17.915-33.545 1.658-2.474.1-3.757 3.363-3.286 1.436.209 5.03 11.052 5.462 12.149 3.219 8.15 5.754 16.765 5.604 25.615-.303 17.757-11.044 32.588-23.462 44.347-21.447 20.311-44.677 37.349-64.113 59.904-.776.896.536 2.21 1.307 1.305 11.496-13.469 23.848-26.123 37.27-37.696 12.906-11.124 27.236-21.021 37.656-34.693 18.905-24.801 12.088-49.758-.132-75.86-.367-.779-1.406-.429-1.655.216-12.133 31.145-31.194 58.586-56.073 80.955-9.156 8.232-17.223 15.528-20.545 27.764-3.497 12.875-1.623 26.198 2.246 38.728.144.46.84.27.723-.198" transform="translate(147 -1005) matrix(-1 0 0 1 352 1005)"/>
                <path d="M266.171 95.068c13.516 33.92-1.872 64.423-26.763 87.162-17.464 15.955-37.523 30.443-47.352 52.867-.303.688.704 1.288 1.003.596 12.357-28.813 40.222-43.162 60.037-65.725 18.738-21.338 24.366-48.212 13.173-74.942-.024-.055-.12-.013-.098.042" transform="translate(147 -1005) matrix(-1 0 0 1 352 1005)"/>
                <path d="M266.657 101.125c-3.236 13.667-1.217 27.874-5.633 41.39-4.667 14.281-13.62 26.57-25.653 35.676-8.96 6.776-17.845 11.944-24.255 21.353-7.452 10.935-11.782 23.192-21.894 32.28-.671.605.332 1.594.996.985 9.131-8.36 13.63-19.33 19.96-29.669 8.364-13.662 22.178-19.59 33.202-30.451 7.58-7.468 13.477-16.56 17.201-26.464 5.523-14.686 3.647-29.837 6.416-45.006.04-.219-.287-.315-.34-.094" transform="translate(147 -1005) matrix(-1 0 0 1 352 1005)"/>
                <path d="M260.702 109.106c-2.784 13.914-6.724 27.754-14.113 40.142-7.901 13.25-19.03 21.313-31.624 30.09-6.4 4.466-12.98 9.478-16.363 16.544-5.839 12.2-.257 25.939-7.472 37.887-.57.94.886 1.732 1.505.844 6.845-9.783 3.298-20.823 5.653-31.758 3.252-15.102 17.268-21.541 28.862-30.333 20.51-15.548 29.82-39.26 33.848-63.338.03-.182-.257-.265-.296-.078M247.666 282.238c-15.39-8.206-31.533-16.434-49.14-18.724-15.109-1.967-28.708 1.951-42.527 7.652-18.994 7.837-37.802 15.01-58.714 15.527-8.51.21-17.169-.644-25.236-3.423.309.108-15.889-7.76-14.95-8.535-2.107 1.738 6.666 7.124 8.115 8.262 24.043 18.86 53.755 37.458 86.043 33.454 36.18-4.487 71.5-45.144 108.803-23.447.7.408 1.337-.661.635-1.07-28.377-16.525-57.6 3.765-83.278 15.42-47.122 21.385-87.472-6.01-122.89-35.126-.865-.708-2.073.422-1.256 1.23 20.223 19.988 52.398 16.858 77.661 9.329 18.25-5.437 35.083-16.66 54.45-17.964 22.078-1.49 42.819 8.555 62.204 17.551.092.042.172-.088.08-.136" transform="translate(147 -1005) matrix(-1 0 0 1 352 1005)"/>
                <path d="M250.921 287.645c-26.701-11.948-56.325-12.55-83.882-3.168-15.541 5.29-30.648 13.203-47.218 14.8-21.14 2.036-38.73-10.51-57.286-18.62-.404-.175-.763.39-.356.61 13.877 7.411 29.662 16.966 45.481 19.244 13.082 1.88 25.91-1.964 38.077-6.417 16.67-6.102 32.608-13.25 50.517-14.84 18.833-1.674 37.051 1.798 54.542 8.688.17.068.29-.221.125-.297" transform="translate(147 -1005) matrix(-1 0 0 1 352 1005)"/>
                <path d="M245.776 286.863c-25.793-10.358-51.547 2.453-75.72 11.052-16.75 5.959-33.013 8.918-50.659 4.748-16.746-3.958-32.683-11.073-47.713-19.074-.512-.275-.975.487-.458.755 23.16 12.016 50.675 25.3 77.692 20.736 32.74-5.532 62.243-29.753 96.682-17.596.41.146.564-.465.176-.62" transform="translate(147 -1005) matrix(-1 0 0 1 352 1005)"/>
                <path d="M239.953 285.224c-23.037-13.247-50.127-11.924-75.052-5.574-16.057 4.093-31.547 12.18-48.136 13.763-18.664 1.778-34.674-6.978-51.518-13.673-.213-.087-.347.263-.154.375 11.784 6.874 24.953 12.762 38.492 14.47 13.925 1.757 26.832-2.359 39.888-6.902 31.638-11.01 64.92-17.519 96.386-2.293.109.054.2-.104.094-.166M436.468 488.735c-14.761-9.575-30.28-19.253-47.699-22.878-16.425-3.418-31.378.763-46.862 6.166-18.912 6.6-38.503 11.736-58.708 10.127-8.991-.716-18.05-2.809-26.024-7.174-1.734-.953-10.93-6.023-10.452-8.094-.8 3.459 5.297 7.073 7.719 9.343 23.578 22.092 53.56 44.287 87.582 40.31 34.665-4.051 71.663-39.98 106.056-15.787.67.47 1.303-.635.638-1.101-28.426-20.021-60.4 1.524-88.126 11.262-46.837 16.455-84.558-15.693-116.106-46.64-.832-.815-1.985.399-1.253 1.27 18.306 21.712 50.014 21.06 75.36 15.533 19.039-4.152 37.266-15.009 57.096-14.807 22.166.224 41.952 11.897 60.697 22.61.092.051.167-.085.082-.14" transform="translate(147 -1005) matrix(-1 0 0 1 352 1005)"/>
                <path d="M442.918 493.625c-25.152-12.842-54.206-15.778-81.803-9.153-16.837 4.044-33.384 11.077-51.01 11.137-20.686.067-37.06-12.816-54.58-21.566-.404-.2-.74.347-.356.578 12.382 7.42 25.895 16.313 40.036 20.396 13.465 3.889 27.393 1.44 40.625-2.046 16.976-4.472 33.246-10.342 51.073-10.97 19.65-.693 38.232 3.858 55.852 11.891.186.084.349-.172.163-.267" transform="translate(147 -1005) matrix(-1 0 0 1 352 1005)"/>
                <path d="M437.827 493.947c-24.337-12.148-50.384-1.814-74.574 5.296-17.178 5.048-33.797 7.65-51.3 2.45-17.182-5.104-33.314-13.982-48.278-23.619-.495-.317-.959.468-.462.78 22.959 14.434 50.049 30.169 78.282 26.646 32.374-4.036 63.189-25.609 95.992-10.981.39.174.732-.377.34-.572" transform="translate(147 -1005) matrix(-1 0 0 1 352 1005)"/>
                <path d="M428.957 490.769c-21.776-13.334-48.533-14.15-73.58-10.288-16.187 2.495-31.947 8.445-48.387 9.253-19.642.968-35.594-8.267-52.69-15.713-.234-.102-.42.188-.204.324 11.392 7.096 24.525 13.44 38.146 15.787 13.658 2.354 26.695-.488 39.9-3.666 32.481-7.816 66.276-11.468 96.72 4.453.105.056.194-.09.095-.15M348.11 153.112c8.782 24.396 13.11 48.419.573 72.391-7.4 14.156-17.999 26.59-23.786 41.605-10.421 27.06.774 57.654 25.048 72.763.904.563 1.73-.867.832-1.432-16.292-10.265-26.915-27.79-27.972-47.224-1.002-18.502 8.404-34.048 17.803-49.133 7.277-11.677 14.587-23.559 16.69-37.424 2.686-17.704-2.773-35.27-9.009-51.596-.042-.109-.222-.064-.18.05" transform="translate(147 -1005) matrix(-1 0 0 1 352 1005)"/>
                <path d="M348.92 152.04c-2.18 23.655-25.447 41.633-39.831 58.772-11.77 14.02-22.561 30.18-24.718 48.792-3.893 33.586 23.542 58.599 51.588 71.298 1.153.522 2.166-1.176 1-1.713-37.642-17.412-62.952-53.896-41.726-94.48 9.138-17.48 23.437-31.347 35.866-46.43 8.767-10.643 17.806-21.88 17.901-36.24 0-.052-.075-.052-.08 0" transform="translate(147 -1005) matrix(-1 0 0 1 352 1005)"/>
                <path d="M348.019 154.17c3.583 21.263.41 42.394-9.767 61.416-7.409 13.852-17.642 26.102-22.206 41.394-7.294 24.442-1.221 51.662 15.367 70.752.691.794 1.788-.354 1.137-1.151-11.063-13.497-17.678-29.636-18.11-47.283-.44-18.08 6.582-33.053 15.871-48.013 15.121-24.349 23.527-48.205 17.966-77.188-.032-.17-.288-.097-.258.073" transform="translate(147 -1005) matrix(-1 0 0 1 352 1005)"/>
                <path d="M346.367 162.09c1.708 19.312-4.313 37.052-13.722 53.707-7.944 14.069-19.205 26.393-26.071 41.03-11.027 23.505-.728 47.34 16.125 64.946.659.691 1.698-.354 1.045-1.045-11.379-11.99-21.01-27.093-20.885-44.25.125-17.032 11.207-30.529 20.262-43.916 14.246-21.063 26.385-44.332 23.433-70.472-.013-.117-.197-.122-.187 0" transform="translate(147 -1005) matrix(-1 0 0 1 352 1005)"/>
                <path d="M345.86 171.05c-4.263 19.466-12.798 37.201-25.748 52.638-8.239 9.821-18.235 18.97-23.51 30.798-11.073 24.838 5.26 55.872 23.542 73.378.431.412 1.053-.205.658-.64-11.493-12.554-20.729-26.603-24.637-43.2-4.733-20.094 2.803-34.381 15.549-49.353 16.549-19.436 29.211-38.386 34.285-63.586.015-.085-.118-.122-.139-.035M336.973 179.007c-13.567 26.732-37.761 46.46-52.893 72.175-.365.62.62 1.157 1.018.555 16.343-24.647 40.428-45.457 51.901-72.72.006-.013-.02-.025-.026-.01" transform="translate(147 -1005) matrix(-1 0 0 1 352 1005)"/>
                <path d="M347.362 160.092c4.557 35.107-6.14 66.52-22.099 97.132-4.886 9.371-9.34 17.808-8.032 28.669 1.612 13.43 6.096 28.474 11.355 40.88.204.478.898.124.798-.342-3.168-14.558-11.233-29.5-11.667-44.53-.466-16.238 12.967-31.025 19.14-45.447 10.353-24.195 14.645-50.228 10.687-76.387-.015-.105-.194-.08-.182.025M20.025 69.16c14.313 15.51 29.271 25.521 51.39 24.595 13.965-.584 28.225-3.747 41.655 1.574 14.875 5.892 24.625 19.494 26.246 34.89.108 1.033 1.783 1.05 1.68 0-1.788-18.344-14.828-34.644-33.774-38.753-13.365-2.897-26.84 1.056-40.252.987-19.846-.097-33.696-9.964-46.81-23.425-.085-.086-.215.044-.135.132" transform="translate(147 -1005) matrix(-1 0 0 1 352 1005)"/>
                <path d="M20.02 65.597c20.832 10.064 47.995-6.358 69.617-7.109 34.088-1.186 50.19 26.92 49.268 57.547-.038 1.29 1.963 1.284 2.013 0 .9-21.61-5.446-46.965-27.419-56.287-11.368-4.82-24.21-4.361-36.127-2.135-18.087 3.38-39.016 14.22-57.32 7.911-.044-.015-.074.053-.031.073" transform="translate(147 -1005) matrix(-1 0 0 1 352 1005)"/>
                <path d="M25.042 68.224c15.797 11.984 32.582 14.99 52.147 13.36 26.769-2.23 49.727 5.528 61.298 31.034.363.8 1.804.22 1.46-.603-6.632-15.93-20.852-27.847-38.147-31.515-11.146-2.361-22.258.046-33.462.479-15.772.61-30.39-3.903-43.136-12.958-.118-.087-.279.114-.16.203" transform="translate(147 -1005) matrix(-1 0 0 1 352 1005)"/>
                <path d="M26.042 67.173c14.372 9.316 30.84 10.06 47.51 8.414 11.046-1.09 22.89-4.417 33.89-1.151 13.653 4.053 21.55 16.542 26.103 29.068.316.873 1.727.499 1.409-.384-5.234-14.57-15.24-28.235-31.684-30.603-11.682-1.682-23.873 1.958-35.49 2.752-14.59.998-28.924-.609-41.644-8.255-.101-.061-.192.095-.094.159" transform="translate(147 -1005) matrix(-1 0 0 1 352 1005)"/>
                <path d="M36.047 70.538c16.524 4.512 31.649 3.539 48.205-.112 13.506-2.98 25.598-3.445 36.703 5.655 9.051 7.414 14.827 17.06 19.176 27.63.204.496 1.02.31.845-.225-4.794-14.475-16.473-31.507-32.496-35.58-8.863-2.253-17.848.163-26.502 2.177-15.596 3.624-30.257 4.219-45.894.33-.086-.02-.118.104-.037.125M40.013 67.622c21.688 2.161 42.976-5.571 64.44-7.467.718-.063.74-1.19 0-1.154-21.79.994-42.479 8.672-64.44 8.593-.017 0-.017.028 0 .028" transform="translate(147 -1005) matrix(-1 0 0 1 352 1005)"/>
                <path d="M26.042 67.18c14.53 10.317 31.12 16.114 48.892 17.834 9.848.953 19.662-1.254 29.312-.472 15.429 1.252 24.92 16.463 35.997 25.34.451.362 1.006-.185.636-.631-5.921-7.136-13.629-14.389-21.283-19.724-7.762-5.408-15.026-5.275-24.357-5.21-24.843.173-48.066-3.292-69.1-17.3-.104-.07-.195.093-.097.163M346 365.046c.058 0 .058-.092 0-.092s-.058.092 0 .092M381.068 382.051c-29.475-19.535-64.234-21.617-97.304-9.652-36.136 13.07-77.283 39.867-115.59 17.417-.629-.37-1.5.392-1.05 1.017 19.196 26.772 53.817 41.215 87.045 34.554 22.94-4.599 43.33-17.43 65.618-24.103 26.138-7.828 54.818-8.617 78.019 7.15.738.501 1.426-.443 1.12-1.09-8.49-17.835-22.882-31.191-41.767-38.307-.683-.257-.955.791-.3 1.057 11.227 4.58 21.27 11.166 29.221 20.196.474.543 11.035 12.952 9.908 14.627.05-.07-10.274-5.184-11.17-5.55-16.762-6.828-35.496-6.777-53.042-3.159-23.136 4.769-43.26 16.321-65.375 23.8-22.194 7.504-45.594 6.66-66.73-3.661-9.334-4.558-17.93-10.745-24.87-18.343-5.757-6.305-3.555-4.214 2.691-1.875 3.581 1.34 7.282 2.287 11.06 2.919 18.236 3.06 37.023-1.508 53.942-7.937 21.316-8.099 41.55-19.586 64.314-23.565 25.714-4.498 52.05 1.486 74.058 14.844.222.133.414-.198.202-.339" transform="translate(147 -1005) matrix(-1 0 0 1 352 1005)"/>
                <path d="M396.955 411.64c-21.313-28.305-58.842-37.985-91.693-27.56-41.222 13.083-91.523 55.6-129.799 12.926-.205-.228-.59.068-.422.33 20.182 31.706 63.697 18.53 90.607 5.688 22.124-10.56 44.255-23.11 69.497-22.022 24.293 1.047 45.26 13.03 61.408 30.956.192.21.579-.079.402-.317" transform="translate(147 -1005) matrix(-1 0 0 1 352 1005)"/>
                <path d="M397.908 408.932c-30.61-20.359-68.773-21.52-102.414-7.965-17.726 7.141-34.638 16.972-53.611 20.77-25.03 5.01-48.278-3.54-66.21-20.729-.373-.36-.9.175-.568.557 23.995 27.524 60.116 26.749 91.65 13.577 20.86-8.715 40.7-19.846 63.736-21.923 23.97-2.163 46.708 4.186 67.215 16.053.224.129.414-.2.202-.34" transform="translate(147 -1005) matrix(-1 0 0 1 352 1005)"/>
                <path d="M390.997 404.063c-13.803-34.194-60.536-37.607-91.273-29.182-39.42 10.805-91.478 55.738-129.54 17.508-.63-.633-1.612.35-.98.98 24.514 24.494 60.601 13.614 87.999.734 22.851-10.744 44.8-21.864 70.707-22.083 23.773-.204 52.863 8.455 63.014 32.074.018.043.09.012.073-.03M135.718 120.257c.133-18.169 5.551-35.57 17.647-49.077 9.458-10.563 21.729-17.705 32.722-26.354 9.34-7.348 18.186-16.153 22.893-27.462 1.31-3.149 1.253-8.402 2.902-11.021 1.856-2.954 1.597 2.327 2.195 5.007 1.04 4.658 1.46 9.516 1.337 14.295-.948 36.555-33.27 47.163-54.509 69.828-8.069 8.613-14.703 19.123-16.815 31.07-.822 4.663 1.396 11.557-2.917 5.553-5.644-7.86-5.43-20.903-4.372-30.071.074-.637-.994-.791-1.095-.153-2.15 13.685.632 26.185 8.02 37.744.413.649 1.55.454 1.506-.421-.99-20.266 10.002-36.737 24.488-49.402 11.505-10.063 25.866-17.31 35.432-29.61 13.204-16.977 15.195-40.169 6.855-59.791-.317-.746-1.398-.322-1.41.393-.463 31.549-31.142 44.6-51.184 62.277-16.507 14.561-25.558 34.751-24.094 57.195.02.261.397.267.4 0" transform="translate(147 -1005) matrix(-1 0 0 1 352 1005)"/>
                <path d="M145.145 137.692c-4.482-16.543-3.852-33.511 5.837-48.26 9.621-14.643 25.837-22.239 39.624-32.269 14.834-10.79 31.052-29.825 21.568-49.028-.14-.281-.564-.08-.496.207 9.187 38.291-32.14 49.603-53.964 71.05-15.333 15.07-21.167 38.34-13.063 58.434.12.296.582.19.494-.134" transform="translate(147 -1005) matrix(-1 0 0 1 352 1005)"/>
                <path d="M143.531 137.804c.451-17.901 5.311-34.814 17.36-48.47 9.4-10.655 22.122-17.27 33.266-25.805 17.5-13.402 27.65-33.182 20.563-55.242-.158-.498-.893-.297-.78.216 4.17 18.884-.664 36.202-15.116 49.29-9.026 8.173-19.934 13.874-29.328 21.57-17.398 14.254-27.78 35.77-26.368 58.44.015.26.398.265.403 0" transform="translate(147 -1005) matrix(-1 0 0 1 352 1005)"/>
                <path d="M145.982 134.94c-9.855-15.413-3.986-36.004 5.5-50.03 9.414-13.92 23.46-21.947 36.603-31.502 15.293-11.12 29.557-27.187 25.08-47.91-.187-.872-1.492-.503-1.299.37 8.2 37.273-38.026 50.006-56.779 72.376-12.68 15.124-21.488 38.824-9.174 56.739.03.04.098.002.069-.043M453.23 309.099c15.677 14.186 24.591 33.847 24.368 54.55-.22 20.512-9.009 39.736-16.934 58.4-11.87 27.964-23.196 60.482-5.491 88.527.622.983 2.247.08 1.612-.903-24.452-37.989 4.614-79.357 16.395-116.179 9.946-31.092 5.053-61.404-19.865-84.478-.056-.05-.14.03-.084.083" transform="translate(147 -1005) matrix(-1 0 0 1 352 1005)"/>
                <path d="M454.269 309.069c7.17 22.534-9.534 38.866-17.76 58.11-5.592 13.076-7.61 27.33-7.505 41.459.118 15.947 2.916 31.744 6.225 47.297 3.196 15.04 5.667 31.195 15.296 43.68.69.895 2.233.078 1.57-.912-10.206-15.135-12.992-34.257-16.325-51.887-3.289-17.374-5.622-35.211-3.88-52.901 1.964-19.974 11.422-34.54 19.83-52.097 5.088-10.628 7.49-21.724 2.65-32.792-.026-.055-.119-.015-.101.043" transform="translate(147 -1005) matrix(-1 0 0 1 352 1005)"/>
                <path d="M458.398 320.067c6.171 28.077-12.705 55.546-13.338 83.802-.634 28.368 4.008 56.237 2.639 84.697-.026.498.78.607.896.118 6.82-28.279-2.66-58.396-1.834-87.029.793-27.456 18.388-54.151 11.743-81.615-.016-.07-.121-.04-.106.027" transform="translate(147 -1005) matrix(-1 0 0 1 352 1005)"/>
                <path d="M454.494 313.102c10.708 19.98 5.688 43.02 3.288 64.317-2.431 21.546-5.358 43.168-6.78 64.797-.058.883 1.509 1.11 1.637.213 3.403-23.93 5.122-48.162 7.412-72.207 1.842-19.366 5.064-39.554-5.434-57.188-.047-.077-.165-.01-.123.068" transform="translate(147 -1005) matrix(-1 0 0 1 352 1005)"/>
                <path d="M459.311 322c-1.352-11.194 6.21 11.691 6.851 14.168 2.24 8.605 3.348 17.488 3.528 26.393.363 18.057-3.18 35.965-8.147 53.203-7.754 26.924-25.787 57.044-15.4 85.566.428 1.174 2.264.681 1.845-.524-6.365-18.319-1.155-36.12 4.955-53.64 5.904-16.937 11.885-33.801 15.247-51.515 5.208-27.422 3.834-55.88-9.728-80.565-.097-.18-.33-.05-.303.133.36 2.264.714 4.528 1.074 6.792.007.045.083.037.078-.01" transform="translate(147 -1005) matrix(-1 0 0 1 352 1005)"/>
            </g>
        </g>
    </g>
</svg>